#N canvas 158 288 1712 781 12;
#X declare -lib fd_lib;
#X obj 545 56 tgl 20 0 empty empty empty 0 -10 0 12 #fcfcfc #000000 #000000 0 1;
#X obj 485 10 declare -lib fd_lib;
#X obj 545 81 metro 1;
#X obj 545 136 unpack f f f;
#X obj 545 109 lorenz;
#X floatatom 607 75 5 0 0 0 - - - 0;
#X floatatom 249 35 5 0 0 0 - - - 0;
#X obj 214 62 phasor~ 300;
#X obj 217 104 hip~ 2500;
#X text 356 16 abeja;
#X floatatom 773 210 5 0 0 0 - - - 0;
#X obj 215 131 *~ 0.05;
#X msg 14 73 \; pd dsp 1;
#X msg 12 25 \; pd dsp 0;
#X obj 229 252 env~;
#X floatatom 229 277 5 0 0 0 - - - 0;
#X obj 287 251 env~;
#X floatatom 287 276 5 0 0 0 - - - 0;
#X obj 171 125 env~;
#X floatatom 171 150 5 0 0 0 - - - 0;
#X obj 528 170 / 20;
#X obj 570 166 / 26;
#X obj 617 178 / 50;
#X obj 513 312 s \$0-RoomEncoder;
#X obj 38 162 r \$0-RoomEncoder;
#X obj 368 248 print room;
#X msg 673 308 param_list;
#X msg 497 206 param_set 7 \$1;
#X msg 510 233 param_set 8 \$1;
#X msg 529 267 param_set 9 \$1;
#X obj 218 216 vstplugin~ -e RoomEncoder 12 2;
#X obj 208 180 vstplugin~ -e StereoEncoder 2 12;
#X connect 0 0 2 0;
#X connect 2 0 4 0;
#X connect 3 0 20 0;
#X connect 3 1 21 0;
#X connect 3 2 22 0;
#X connect 4 0 3 0;
#X connect 5 0 2 1;
#X connect 6 0 7 0;
#X connect 7 0 8 0;
#X connect 8 0 11 0;
#X connect 11 0 18 0;
#X connect 11 0 31 0;
#X connect 14 0 15 0;
#X connect 16 0 17 0;
#X connect 18 0 19 0;
#X connect 20 0 27 0;
#X connect 21 0 28 0;
#X connect 22 0 29 0;
#X connect 24 0 30 0;
#X connect 26 0 23 0;
#X connect 27 0 23 0;
#X connect 28 0 23 0;
#X connect 29 0 23 0;
#X connect 30 0 14 0;
#X connect 30 1 16 0;
#X connect 30 2 25 0;
#X connect 31 0 30 0;
#X connect 31 1 30 1;
#X connect 31 2 30 2;
#X connect 31 3 30 3;
#X connect 31 4 30 4;
#X connect 31 5 30 5;
#X connect 31 6 30 6;
#X connect 31 7 30 7;
#X connect 31 8 30 8;
#X connect 31 9 30 9;
#X connect 31 10 30 10;
#X connect 31 11 30 11;
