#N canvas 684 208 1712 781 12;
#X declare -lib fd_lib;
#X obj 545 56 tgl 20 0 empty empty empty 0 -10 0 12 #fcfcfc #000000 #000000 0 1;
#X obj 485 10 declare -lib fd_lib;
#X obj 545 81 metro 1;
#X obj 545 136 unpack f f f;
#X obj 545 109 lorenz;
#X floatatom 607 75 5 0 0 0 - - - 0;
#X floatatom 249 35 5 0 0 0 - - - 0;
#X obj 214 62 phasor~ 300;
#X obj 217 104 hip~ 2500;
#X text 356 16 abeja;
#X floatatom 773 210 5 0 0 0 - - - 0;
#X obj 215 131 *~ 0.05;
#X msg 14 73 \; pd dsp 1;
#X msg 12 25 \; pd dsp 0;
#X obj 229 252 env~;
#X floatatom 229 277 5 0 0 0 - - - 0;
#X obj 287 251 env~;
#X floatatom 287 276 5 0 0 0 - - - 0;
#X obj 445 126 env~;
#X floatatom 445 151 5 0 0 0 - - - 0;
#X obj 528 170 / 20;
#X obj 570 166 / 26;
#X obj 617 178 / 50;
#X obj 38 162 r \$0-RoomEncoder;
#X obj 368 248 print room;
#X msg 673 308 param_list;
#X msg 360 98 param_list;
#X obj 28 238 env~;
#X floatatom 28 263 5 0 0 0 - - - 0;
#X obj 117 242 env~;
#X floatatom 117 267 5 0 0 0 - - - 0;
#X msg 353 61 reset 0;
#X obj 509 336 s \$0-RoomEncoder;
#X obj 513 312 iempluginOSC;
#X floatatom 445 53 5 0 0 0 - - - 0;
#X msg 445 77;
#X msg 497 206 /RoomEncoder/sourceX \$1;
#X msg 553 235 /RoomEncoder/sourceY \$1;
#X msg 572 269 /RoomEncoder/sourceZ \$1;
#X obj 218 162 vstplugin~ -e StereoEncoder 1 12;
#X obj 275 213 vstplugin~ -e RoomEncoder 12 2;
#X obj 24 213 vstplugin~ -e BinauralDecoder 12 2;
#X obj 149 316;
#X connect 0 0 2 0;
#X connect 2 0 4 0;
#X connect 3 0 20 0;
#X connect 3 1 21 0;
#X connect 3 2 22 0;
#X connect 4 0 3 0;
#X connect 5 0 2 1;
#X connect 6 0 7 0;
#X connect 7 0 8 0;
#X connect 8 0 11 0;
#X connect 11 0 18 0;
#X connect 11 0 39 0;
#X connect 14 0 15 0;
#X connect 16 0 17 0;
#X connect 18 0 19 0;
#X connect 20 0 36 0;
#X connect 21 0 37 0;
#X connect 22 0 38 0;
#X connect 23 0 40 0;
#X connect 25 0 33 0;
#X connect 27 0 28 0;
#X connect 29 0 30 0;
#X connect 31 0 39 0;
#X connect 33 0 32 0;
#X connect 34 0 35 0;
#X connect 36 0 33 0;
#X connect 37 0 33 0;
#X connect 38 0 33 0;
#X connect 39 0 40 0;
#X connect 39 0 41 0;
#X connect 39 1 40 1;
#X connect 39 1 41 1;
#X connect 39 2 40 2;
#X connect 39 2 41 2;
#X connect 39 3 40 3;
#X connect 39 3 41 3;
#X connect 39 4 40 4;
#X connect 39 4 41 4;
#X connect 39 5 40 5;
#X connect 39 5 41 5;
#X connect 39 6 40 6;
#X connect 39 6 41 6;
#X connect 39 7 40 7;
#X connect 39 7 41 7;
#X connect 39 8 40 8;
#X connect 39 8 41 8;
#X connect 39 9 40 9;
#X connect 39 9 41 9;
#X connect 39 10 40 10;
#X connect 39 10 41 10;
#X connect 39 11 40 11;
#X connect 39 11 41 11;
#X connect 40 0 14 0;
#X connect 40 1 16 0;
#X connect 41 0 27 0;
#X connect 41 1 29 0;
