#N canvas 15 27 1712 781 12;
#X declare -lib fd_lib;
#X obj 496 63 tgl 20 0 empty empty empty 0 -10 0 12 #fcfcfc #000000 #000000 0 1;
#X obj 485 10 declare -lib fd_lib;
#X obj 496 88 metro 1;
#X obj 496 143 unpack f f f;
#X obj 496 116 lorenz;
#X floatatom 558 82 5 0 0 0 - - - 0;
#X floatatom 249 35 5 0 0 0 - - - 0;
#X obj 214 62 phasor~ 300;
#X obj 217 104 hip~ 2500;
#X text 356 16 abeja;
#X obj 215 131 *~ 0.05;
#X msg 14 73 \; pd dsp 1;
#X msg 12 25 \; pd dsp 0;
#X obj 500 172 / 20;
#X obj 542 174 / 26;
#X obj 583 171 / 50;
#X obj 311 106 r \$0-RoomEncoder;
#X obj 243 220 env~;
#X floatatom 243 245 5 0 0 0 - - - 0;
#X obj 332 224 env~;
#X floatatom 332 249 5 0 0 0 - - - 0;
#X msg 497 206 /RoomEncoder/sourceX \$1;
#X msg 518 231 /RoomEncoder/sourceY \$1;
#X msg 538 254 /RoomEncoder/sourceZ \$1;
#X obj 206 192 vstplugin~ -e BinauralDecoder 12 2;
#X obj 218 162 vstplugin~ -e RoomEncoder 1 12;
#X obj 226 281 output~;
#X obj 317 132 iempluginOSC;
#X obj 505 285 s \$0-RoomEncoder;
#X msg 643 12 /RoomEncoder/listenerX 0;
#X msg 648 33 /RoomEncoder/listenerY 0;
#X msg 655 53 /RoomEncoder/listenerZ 1.8;
#X msg 652 94 /RoomEncoder/listenerX 0;
#X msg 657 115 /RoomEncoder/listenerY 0;
#X msg 664 135 /RoomEncoder/listenerZ 1.8;
#X connect 0 0 2 0;
#X connect 2 0 4 0;
#X connect 3 0 13 0;
#X connect 3 1 14 0;
#X connect 3 2 15 0;
#X connect 4 0 3 0;
#X connect 5 0 2 1;
#X connect 6 0 7 0;
#X connect 7 0 8 0;
#X connect 8 0 10 0;
#X connect 10 0 25 0;
#X connect 13 0 21 0;
#X connect 14 0 22 0;
#X connect 15 0 23 0;
#X connect 16 0 27 0;
#X connect 17 0 18 0;
#X connect 19 0 20 0;
#X connect 21 0 28 0;
#X connect 22 0 28 0;
#X connect 23 0 28 0;
#X connect 24 0 17 0;
#X connect 24 0 26 0;
#X connect 24 1 19 0;
#X connect 24 1 26 1;
#X connect 25 0 24 0;
#X connect 25 1 24 1;
#X connect 25 2 24 2;
#X connect 25 3 24 3;
#X connect 25 4 24 4;
#X connect 25 5 24 5;
#X connect 25 6 24 6;
#X connect 25 7 24 7;
#X connect 25 8 24 8;
#X connect 25 9 24 9;
#X connect 25 10 24 10;
#X connect 25 11 24 11;
#X connect 27 0 25 0;
