#N canvas 160 103 1712 781 12;
#X declare -lib fd_lib;
#X obj 370 179 oscparse;
#X msg 84 198 disconnect;
#X obj 48 228 netsend -u -b;
#X text 168 198 don't send;
#X text 231 172 send as UDP;
#X obj 370 120 netreceive -u -b;
#X msg 382 93 listen 0;
#X text 367 41 packets from network;
#X msg 65 173 connect localhost 8009;
#X msg 370 65 listen 8010;
#X obj 48 253 tgl 20 0 empty empty empty 0 -10 0 12 #fcfcfc #000000 #000000 0 1;
#X obj 370 204 t a b;
#X obj 370 229 text set params;
#X msg 418 205 1000;
#X msg 229 33 clear;
#X obj 229 58 text define params;
#X floatatom 51 39 5 0 0 0 - - - 0;
#X listbox 51 88 27 0 0 0 - - - 0;
#X floatatom 162 128 5 0 0 0 - - - 0;
#X obj 49 142 oscformat;
#X msg 57 113 set \$1 \$2;
#X obj 51 63 text get params 0 2;
#X obj 545 56 tgl 20 0 empty empty empty 0 -10 0 12 #fcfcfc #000000 #000000 0 1;
#X obj 485 10 declare -lib fd_lib;
#X obj 545 81 metro 1;
#X obj 545 136 unpack f f f;
#X obj 545 109 lorenz;
#X obj 291 280 oscformat RoomEncoder sourceX;
#X obj 319 299 oscformat RoomEncoder sourceY;
#X obj 352 320 oscformat RoomEncoder sourceZ;
#X floatatom 607 75 5 0 0 0 - - - 0;
#X floatatom 498 191 5 0 0 0 - - - 0;
#X floatatom 528 244 5 0 0 0 - - - 0;
#X floatatom 566 321 5 0 0 0 - - - 0;
#X floatatom 739 103 5 0 0 0 - - - 0;
#X obj 711 240 dac~ 1;
#X obj 704 130 phasor~ 300;
#X obj 707 172 hip~ 2500;
#X text 723 75 abeja;
#X floatatom 773 210 5 0 0 0 - - - 0;
#X obj 484 162 expr $f1/10-0.5;
#X obj 528 219 expr $f1/13-0.5;
#X obj 567 296 expr $f1/25-0.5;
#X obj 493 218 * 1;
#X obj 571 260 * 1;
#X obj 615 327 * 1;
#X floatatom 657 184 5 0 0 0 - - - 0;
#X floatatom 669 223 5 0 0 0 - - - 0;
#X floatatom 700 287 5 0 0 0 - - - 0;
#X obj 710 212 *~ 0.05;
#X connect 0 0 11 0;
#X connect 1 0 2 0;
#X connect 2 0 10 0;
#X connect 5 0 0 0;
#X connect 6 0 5 0;
#X connect 8 0 2 0;
#X connect 9 0 5 0;
#X connect 11 0 12 0;
#X connect 11 1 13 0;
#X connect 13 0 12 1;
#X connect 14 0 15 0;
#X connect 16 0 21 0;
#X connect 17 0 20 0;
#X connect 18 0 19 0;
#X connect 19 0 2 0;
#X connect 20 0 19 0;
#X connect 21 0 17 0;
#X connect 22 0 24 0;
#X connect 24 0 26 0;
#X connect 25 0 40 0;
#X connect 25 1 41 0;
#X connect 25 2 42 0;
#X connect 26 0 25 0;
#X connect 27 0 2 0;
#X connect 28 0 2 0;
#X connect 29 0 2 0;
#X connect 30 0 24 1;
#X connect 34 0 36 0;
#X connect 36 0 37 0;
#X connect 37 0 49 0;
#X connect 40 0 31 0;
#X connect 40 0 43 0;
#X connect 41 0 32 0;
#X connect 41 0 44 0;
#X connect 42 0 33 0;
#X connect 42 0 45 0;
#X connect 43 0 27 0;
#X connect 44 0 28 0;
#X connect 45 0 29 0;
#X connect 46 0 43 1;
#X connect 47 0 44 1;
#X connect 48 0 45 1;
#X connect 49 0 35 0;
