#N canvas 15 27 1712 781 12;
#X obj 643 69 inlet;
#X obj 643 94 switch~;
#X obj 206 271 vstplugin~ RoomEncoder 1 4;
#X obj 222 349 outlet~;
#X obj 284 348 outlet~;
#X obj 345 347 outlet~;
#X obj 407 346 outlet~;
#X obj 271 241 r room;
#X obj 294 199 iempluginOSC;
#X msg 297 140 /RoomEncoder/sourceX \$1 \, /RoomEncoder/sourceY \$2 \, /RoomEncoder/sourceZ \$3, f 24;
#X obj 710 57 r bee-switch;
#X obj 206 50 r bees;
#X text 340 38 abeja;
#X obj 27 25 loadbang;
#X obj 27 50 f \$1;
#X obj 37 341 *~ 0.03;
#X obj 14 308 hip~ 3500;
#X obj 87 65 r base;
#X obj 87 90 t b f;
#X obj 27 75 * 1.1;
#X obj 105 259 r amplitude;
#X obj 102 316 dbtorms;
#X obj 102 341 clip 0 1;
#X obj 103 288 clip 0 100;
#X obj 27 101 + 250;
#X obj 26 153 * 1;
#X obj 67 176 t b f;
#X obj 114 17 r speed-pitch-factor;
#X obj 67 154 + 1;
#X obj 138 74 r speed-pitch-q;
#X obj 67 132 *;
#X obj 12 235 tabosc4~ 0-exp;
#X obj 34 200 r \$1-bee-shape;
#X obj 40 268 r lowcut;
#X obj 515 141 list split 1;
#X obj 515 166 float;
#X obj 558 166 list split 1;
#X obj 558 191 float;
#X obj 601 192 list split 1;
#X obj 601 217 float;
#X obj 525 321 pack f f f;
#X obj 478 233 pack f 10;
#X obj 480 258 line 0 1;
#X obj 558 256 pack f 10;
#X obj 558 289 line 0 1;
#X obj 636 267 pack f 10;
#X obj 634 299 line 0 1;
#X obj 444 36 inlet;
#X connect 0 0 1 0;
#X connect 2 0 3 0;
#X connect 2 1 4 0;
#X connect 2 2 5 0;
#X connect 2 3 6 0;
#X connect 7 0 2 0;
#X connect 8 0 2 0;
#X connect 9 0 8 0;
#X connect 10 0 1 0;
#X connect 13 0 14 0;
#X connect 14 0 19 0;
#X connect 15 0 2 0;
#X connect 16 0 15 0;
#X connect 17 0 18 0;
#X connect 18 0 14 0;
#X connect 18 1 24 1;
#X connect 19 0 24 0;
#X connect 20 0 23 0;
#X connect 21 0 22 0;
#X connect 22 0 15 1;
#X connect 23 0 21 0;
#X connect 24 0 25 0;
#X connect 25 0 31 0;
#X connect 26 0 25 0;
#X connect 26 1 25 1;
#X connect 27 0 30 1;
#X connect 28 0 26 0;
#X connect 29 0 28 1;
#X connect 30 0 28 0;
#X connect 31 0 16 0;
#X connect 32 0 31 0;
#X connect 33 0 16 1;
#X connect 34 0 35 0;
#X connect 34 1 36 0;
#X connect 35 0 41 0;
#X connect 36 0 37 0;
#X connect 36 1 38 0;
#X connect 37 0 43 0;
#X connect 38 0 39 0;
#X connect 39 0 45 0;
#X connect 40 0 9 0;
#X connect 41 0 42 0;
#X connect 42 0 40 0;
#X connect 43 0 44 0;
#X connect 44 0 40 1;
#X connect 45 0 46 0;
#X connect 46 0 40 2;
#X connect 47 0 34 0;
