#N canvas 15 27 1712 781 12;
#X text 305 89 abeja;
#X obj 141 312 outlet~;
#X obj 257 312 outlet~;
#X obj 392 78 loadbang;
#X obj 392 103 f \$1;
#X obj 280 174 *~ 0.03;
#N canvas 533 27 1044 947 motion 1;
#X obj 52 90 tgl 20 0 empty empty empty 0 -10 0 12 #fcfcfc #000000 #000000 0 1;
#X obj 52 170 unpack f f f;
#X obj 52 143 lorenz;
#X obj 56 199 / 20;
#X obj 98 201 / 26;
#X obj 139 198 / 50;
#X msg 61 305 /RoomEncoder/sourceX \$1;
#X msg 82 330 /RoomEncoder/sourceY \$1;
#X msg 102 353 /RoomEncoder/sourceZ \$1;
#X obj 58 398 iempluginOSC;
#X msg 327 154 initx \$1;
#X msg 337 174 inity \$1;
#X msg 347 194 initz \$1;
#X obj 58 423 outlet;
#X obj 258 18 loadbang;
#X obj 52 19 inlet;
#X obj 52 115 metro 7;
#X obj 130 97 r speed;
#X obj 206 125 until;
#X obj 54 248 - 1;
#X obj 51 225 * 2;
#X obj 96 231 * 2;
#X obj 97 255 - 1;
#X obj 144 226 * 2;
#X obj 142 247 - 1;
#X obj 325 80 random 100;
#X obj 325 105 / 100;
#X obj 369 101 random 100;
#X obj 369 126 / 100;
#X obj 413 125 random 100;
#X obj 413 150 / 100;
#X obj 352 55 t b b b;
#X obj 265 44 t b b;
#X obj 281 251 pack f 7;
#X obj 216 248 pack f 7;
#X obj 364 247 pack f 7;
#X obj 281 276 line 0 3;
#X obj 216 273 line 0 3;
#X obj 364 272 line 0 3;
#X obj 52 55 route float random;
#X obj 53 273 * 13;
#X obj 95 279 * 13;
#X obj 142 275 * 8;
#X msg 206 100 1000;
#X connect 0 0 16 0;
#X connect 1 0 3 0;
#X connect 1 1 4 0;
#X connect 1 2 5 0;
#X connect 2 0 1 0;
#X connect 3 0 20 0;
#X connect 4 0 21 0;
#X connect 5 0 23 0;
#X connect 6 0 9 0;
#X connect 7 0 9 0;
#X connect 8 0 9 0;
#X connect 9 0 13 0;
#X connect 10 0 2 0;
#X connect 11 0 2 0;
#X connect 12 0 2 0;
#X connect 14 0 32 0;
#X connect 15 0 39 0;
#X connect 16 0 2 0;
#X connect 17 0 16 1;
#X connect 17 0 34 1;
#X connect 17 0 33 1;
#X connect 17 0 35 1;
#X connect 18 0 2 0;
#X connect 19 0 40 0;
#X connect 20 0 19 0;
#X connect 21 0 22 0;
#X connect 22 0 41 0;
#X connect 23 0 24 0;
#X connect 24 0 42 0;
#X connect 25 0 26 0;
#X connect 26 0 10 0;
#X connect 27 0 28 0;
#X connect 28 0 11 0;
#X connect 29 0 30 0;
#X connect 30 0 12 0;
#X connect 31 0 25 0;
#X connect 31 1 27 0;
#X connect 31 2 29 0;
#X connect 32 0 43 0;
#X connect 32 1 31 0;
#X connect 33 0 36 0;
#X connect 34 0 37 0;
#X connect 35 0 38 0;
#X connect 36 0 7 0;
#X connect 37 0 6 0;
#X connect 38 0 8 0;
#X connect 39 0 0 0;
#X connect 39 1 31 0;
#X connect 39 2 2 0;
#X connect 40 0 34 0;
#X connect 41 0 33 0;
#X connect 42 0 35 0;
#X connect 43 0 18 0;
#X restore 122 86 pd motion;
#X obj 115 24 inlet;
#X obj 497 63 inlet;
#X obj 497 88 switch~;
#X obj 225 26 inlet;
#X obj 188 221 vstplugin~ RoomEncoder 1 4;
#X obj 280 148 hip~ 3500;
#X obj 452 118 r base;
#X obj 452 143 t b f;
#X obj 392 128 * 1.1;
#X obj 480 171 r amplitude;
#X obj 477 228 dbtorms;
#X obj 477 253 clip 0 1;
#X obj 478 200 clip 0 100;
#X obj 285 124 phasor~;
#X obj 392 154 + 250;
#X obj 347 310 outlet~;
#X obj 463 310 outlet~;
#X connect 3 0 4 0;
#X connect 4 0 15 0;
#X connect 5 0 11 0;
#X connect 6 0 11 0;
#X connect 7 0 6 0;
#X connect 8 0 9 0;
#X connect 10 0 11 0;
#X connect 11 0 1 0;
#X connect 11 1 2 0;
#X connect 11 2 22 0;
#X connect 11 3 23 0;
#X connect 12 0 5 0;
#X connect 13 0 14 0;
#X connect 14 0 4 0;
#X connect 14 1 21 1;
#X connect 15 0 21 0;
#X connect 16 0 19 0;
#X connect 17 0 18 0;
#X connect 18 0 5 1;
#X connect 19 0 17 0;
#X connect 20 0 12 0;
#X connect 21 0 20 0;
