#N canvas 117 33 1639 883 12;
#X declare -lib fd_lib;
#X obj 485 10 declare -lib fd_lib;
#X msg 14 73 \; pd dsp 1;
#X msg 12 25 \; pd dsp 0;
#X obj 409 220 tgl 20 0 empty empty empty 0 -10 0 12 #fcfcfc #000000 #000000 0 1;
#X msg 409 245 all \$1;
#X obj 177 138 tgl 20 0 empty empty empty 0 -10 0 12 #fcfcfc #000000 #000000 0 1;
#X msg 177 163 all \$1;
#X obj 323 195 list prepend all;
#X obj 313 222 list trim;
#X obj 323 170 iempluginOSC;
#X obj 252 312 output~;
#X msg 322 103 X 0 \, Y 0 \, Z 1.8;
#X msg 310 146 /RoomEncoder/listener\$1 \$2;
#X obj 316 125 list;
#X obj 289 44 list;
#X msg 295 22 X 25 \, Y 25 \, Z 10;
#X msg 283 65 /RoomEncoder/room\$1 \$2;
#X obj 221 68 bng 20 250 50 0 empty empty empty 0 -10 0 12 #fcfcfc #000000 #000000;
#X floatatom 140 235 5 0 0 0 - - - 0;
#X obj 140 259 s speed;
#X floatatom 39 207 5 0 0 0 - - - 0;
#X obj 39 231 s base;
#X floatatom 55 274 5 0 0 0 - - - 0;
#X obj 55 298 s amplitude;
#X msg 44 114 initx 0 \, inity 0 \, initz 0.1;
#X obj 44 139 list prepend all;
#X obj 44 164 list trim;
#X text 90 90 same initial state;
#X msg 98 8 all random;
#X obj 213 319 env~;
#X floatatom 213 344 5 0 0 0 - - - 0;
#X obj 325 320 env~;
#X floatatom 325 345 5 0 0 0 - - - 0;
#X obj 230 282 vstplugin~ BinauralDecoder 4 2;
#X obj 454 42 hsl 170 20 0 127 0 0 empty empty empty -2 -10 0 12 #fcfcfc #000000 #000000 0 1;
#X obj 451 67 expr $f1/127*30-15;
#X obj 530 100 vsl 20 170 0 127 0 0 empty empty empty 0 -9 0 12 #fcfcfc #000000 #000000 0 1;
#X obj 530 278 expr $f1/127*30-15;
#X msg 451 92 X \$1;
#X msg 530 303 Y \$1;
#X floatatom 467 123 5 0 0 0 - - - 0;
#X floatatom 572 306 5 0 0 0 - - - 0;
#X obj 587 112 hsl 170 20 0 127 0 0 empty empty empty -2 -10 0 12 #fcfcfc #000000 #000000 0 1;
#X obj 584 137 expr $f1/127*20-10;
#X floatatom 611 172 5 0 0 0 - - - 0;
#X msg 584 162 Z \$1;
#X obj 275 249 clone bee~ 50;
#X connect 3 0 4 0;
#X connect 4 0 46 2;
#X connect 5 0 6 0;
#X connect 6 0 46 0;
#X connect 7 0 8 0;
#X connect 8 0 46 1;
#X connect 9 0 7 0;
#X connect 11 0 13 0;
#X connect 12 0 9 0;
#X connect 13 0 12 0;
#X connect 14 0 16 0;
#X connect 15 0 14 0;
#X connect 16 0 9 0;
#X connect 17 0 15 0;
#X connect 17 0 11 0;
#X connect 18 0 19 0;
#X connect 20 0 21 0;
#X connect 22 0 23 0;
#X connect 24 0 25 0;
#X connect 25 0 26 0;
#X connect 26 0 46 0;
#X connect 28 0 46 0;
#X connect 29 0 30 0;
#X connect 31 0 32 0;
#X connect 33 0 29 0;
#X connect 33 0 10 0;
#X connect 33 1 31 0;
#X connect 33 1 10 1;
#X connect 34 0 35 0;
#X connect 35 0 38 0;
#X connect 35 0 40 0;
#X connect 36 0 37 0;
#X connect 37 0 39 0;
#X connect 37 0 41 0;
#X connect 38 0 13 0;
#X connect 39 0 13 0;
#X connect 42 0 43 0;
#X connect 43 0 44 0;
#X connect 43 0 45 0;
#X connect 45 0 13 0;
#X connect 46 0 33 0;
#X connect 46 1 33 1;
#X connect 46 2 33 2;
#X connect 46 3 33 3;
