#N canvas 117 33 1796 883 12;
#X declare -lib fd_lib -path fd_lib;
#X msg 14 73 \; pd dsp 1;
#X msg 12 25 \; pd dsp 0;
#X obj 352 159 tgl 20 0 empty empty empty 0 -10 0 12 #fcfcfc #000000 #000000 0 1;
#X msg 352 184 all \$1;
#X obj 274 361 output~;
#X floatatom 283 33 5 0 0 0 - - - 0;
#X obj 283 57 s speed;
#X floatatom 182 5 5 0 0 0 - - - 0;
#X obj 182 29 s base;
#X floatatom 198 72 5 0 0 0 - - - 0;
#X obj 198 96 s amplitude;
#X obj 235 368 env~;
#X floatatom 235 393 5 0 0 0 - - - 0;
#X obj 347 369 env~;
#X floatatom 347 394 5 0 0 0 - - - 0;
#X obj 257 312 vstplugin~ BinauralDecoder 4 2;
#X obj 254 224 clone bee~ 10;
#N canvas 0 27 1920 998 room 0;
#X obj 158 339 iempluginOSC;
#X obj 55 138 list;
#X msg 49 159 /RoomEncoder/room\$1 \$2;
#X obj 107 32 bng 20 250 50 0 empty empty empty 0 -10 0 12 #fcfcfc #000000 #000000;
#X obj 452 139 hsl 170 20 0 127 0 0 empty empty empty -2 -10 0 12 #fcfcfc #000000 #000000 0 1;
#X obj 449 164 expr $f1/127*30-15;
#X obj 638 93 vsl 20 170 0 127 0 0 empty empty empty 0 -9 0 12 #fcfcfc #000000 #000000 0 1;
#X obj 638 271 expr $f1/127*30-15;
#X msg 449 189 X \$1;
#X msg 638 296 Y \$1;
#X floatatom 488 190 5 0 0 0 - - - 0;
#X floatatom 686 298 5 0 0 0 - - - 0;
#X obj 686 138 hsl 170 20 0 127 0 0 empty empty empty -2 -10 0 12 #fcfcfc #000000 #000000 0 1;
#X obj 683 163 expr $f1/127*20-10;
#X floatatom 733 188 5 0 0 0 - - - 0;
#X msg 683 188 Z \$1;
#X obj 169 415 s room;
#X text 140 32 room and default listener;
#X obj 105 6 loadbang;
#X obj 607 36 unpack f f f;
#X obj 449 115 expr ($f1/30)*127+63.5;
#X obj 640 65 expr ($f1/30)*127+63.5;
#X obj 682 109 expr ($f1/20)*127+63.5;
#X obj 684 337 list;
#X msg 684 362 /RoomEncoder/listener\$1 \$2;
#X msg 607 11 4 1.5 1.8;
#X msg 61 116 X 50 \, Y 50 \, Z 20;
#X floatatom 137 209 5 0 0 0 - - - 0;
#X msg 137 233 /RoomEncoder/numRefl \$1;
#X msg 379 271 0 \, 127 60000;
#X obj 379 296 line;
#X obj 302 113 line;
#X msg 302 88 10 \, 70 60000;
#X obj 357 156 bng 20 250 50 0 empty empty empty 0 -10 0 12 #fcfcfc #000000 #000000;
#X connect 0 0 16 0;
#X connect 1 0 2 0;
#X connect 2 0 0 0;
#X connect 3 0 26 0;
#X connect 3 0 25 0;
#X connect 4 0 5 0;
#X connect 5 0 8 0;
#X connect 5 0 10 0;
#X connect 6 0 7 0;
#X connect 7 0 9 0;
#X connect 7 0 11 0;
#X connect 8 0 23 0;
#X connect 9 0 23 0;
#X connect 12 0 13 0;
#X connect 13 0 14 0;
#X connect 13 0 15 0;
#X connect 15 0 23 0;
#X connect 18 0 3 0;
#X connect 19 0 20 0;
#X connect 19 1 21 0;
#X connect 19 2 22 0;
#X connect 20 0 4 0;
#X connect 21 0 6 0;
#X connect 22 0 12 0;
#X connect 23 0 24 0;
#X connect 24 0 0 0;
#X connect 25 0 19 0;
#X connect 26 0 1 0;
#X connect 27 0 28 0;
#X connect 28 0 0 0;
#X connect 29 0 30 0;
#X connect 31 0 4 0;
#X connect 32 0 31 0;
#X connect 33 0 29 0;
#X connect 33 0 32 0;
#X restore 33 161 pd room;
#N canvas 0 27 1920 998 bees-motion 0;
#X obj 563 132 tgl 20 0 empty empty empty 0 -10 0 12 #fcfcfc #000000 #000000 0 1;
#X msg 44 114 initx 0 \, inity 0 \, initz 0.1;
#X text 90 90 same initial state;
#X msg 369 232 10;
#X obj 369 257 until;
#X obj 369 282 t f b;
#X obj 422 314 / 100;
#X obj 422 289 random 300;
#X obj 422 339 + 10;
#X obj 331 317 pack;
#X msg 331 342 \$1 inita \$2;
#X text 188 258 change attractor;
#X obj 121 321 hradio 20 1 0 2 empty empty empty 0 -10 0 12 #fcfcfc #000000 #000000 0;
#X obj 563 182 s bees;
#X obj 44 189 s bees;
#X obj 308 130 s bees;
#X text 305 75 different initial state;
#X text 551 104 start motion;
#X obj 121 370 s bees;
#X obj 425 211 loadbang;
#X msg 308 105 random;
#X msg 120 345 type \$1;
#X obj 340 408 outlet;
#X connect 0 0 13 0;
#X connect 1 0 14 0;
#X connect 3 0 4 0;
#X connect 4 0 5 0;
#X connect 5 0 9 0;
#X connect 5 1 7 0;
#X connect 6 0 8 0;
#X connect 7 0 6 0;
#X connect 8 0 9 1;
#X connect 9 0 10 0;
#X connect 10 0 22 0;
#X connect 12 0 21 0;
#X connect 19 0 3 0;
#X connect 20 0 15 0;
#X connect 21 0 18 0;
#X restore 220 161 pd bees-motion;
#X floatatom 538 242 5 0 0 0 - - - 0;
#X obj 538 266 s speed-pitch-factor;
#X floatatom 548 303 5 0 0 0 - - - 0;
#X obj 548 327 s speed-pitch-q;
#N canvas -231 38 1912 887 write 0;
#X msg 514 366 stop;
#X obj 74 77 r output_filename;
#X obj 79 100 symbol;
#X msg 83 123 open -bytes 4 \$1;
#X obj 409 448 writesf~ 2;
#X msg 312 263 start;
#X obj 387 24 inlet~;
#X obj 515 23 inlet~;
#X obj 558 263 t b b;
#X obj 564 452 outlet;
#X obj 300 50 r duration;
#X obj 285 152 del;
#X obj 290 74 t a a;
#X connect 0 0 4 0;
#X connect 1 0 2 0;
#X connect 2 0 3 0;
#X connect 3 0 4 0;
#X connect 5 0 4 0;
#X connect 6 0 4 0;
#X connect 7 0 4 1;
#X connect 8 0 9 0;
#X connect 8 1 0 0;
#X connect 10 0 12 0;
#X connect 11 0 8 0;
#X connect 12 0 11 0;
#X connect 12 1 5 0;
#X restore 434 352 pd write;
#N canvas 0 0 780 472 autoquit 0;
#X obj 127 47 r autoquit;
#X obj 77 73 spigot;
#X obj 130 72 tgl 20 0 empty empty empty 0 -10 0 12 #fcfcfc #000000 #000000 0 1;
#X msg 74 153 \; pd quit;
#X msg 160 73 0;
#X obj 77 98 t b b b;
#X text 38 9 enable pd to quit AFTER recording;
#X obj 62 35 inlet;
#X connect 0 0 2 0;
#X connect 1 0 5 0;
#X connect 2 0 1 1;
#X connect 4 0 2 0;
#X connect 5 0 3 0;
#X connect 5 1 4 0;
#X connect 7 0 1 0;
#X restore 427 383 pd autoquit;
#X msg 364 54 \; bees 1 \; base 180 \; speed 20 \; amplitude 100 \; bee-switch 1;
#X obj 363 31 loadbang;
#X obj 485 10 declare -lib fd_lib -path fd_lib;
#X obj 737 10 fd_windows 0 2051;
#X msg 495 45 10;
#X obj 495 70 until;
#X obj 546 127 counter -m 10;
#X obj 546 152 list append 0-exp;
#X msg 546 177 \; \$1-bee-shape set \$2;
#X floatatom 669 51 5 0 0 0 - - - 0;
#X listbox 669 100 20 0 0 0 - - - 0;
#X obj 667 75 fd_seltab 0;
#X floatatom 732 191 5 0 0 0 - - - 0;
#X obj 732 215 s lowcut;
#X obj 593 63 random 14;
#X obj 520 99 t b b;
#X obj 540 68 spigot;
#X obj 564 41 tgl 20 0 empty empty empty 0 -10 0 12 #fcfcfc #000000 #000000 0 1;
#X msg 687 133 300;
#X obj 736 143 bng 20 250 50 0 empty empty empty 0 -10 0 12 #fcfcfc #000000 #000000;
#X connect 2 0 3 0;
#X connect 3 0 16 1;
#X connect 5 0 6 0;
#X connect 7 0 8 0;
#X connect 9 0 10 0;
#X connect 11 0 12 0;
#X connect 13 0 14 0;
#X connect 15 0 11 0;
#X connect 15 0 4 0;
#X connect 15 0 23 0;
#X connect 15 1 13 0;
#X connect 15 1 4 1;
#X connect 15 1 23 1;
#X connect 16 0 15 0;
#X connect 16 1 15 1;
#X connect 16 2 15 2;
#X connect 16 3 15 3;
#X connect 18 0 16 0;
#X connect 19 0 20 0;
#X connect 21 0 22 0;
#X connect 23 0 24 0;
#X connect 26 0 25 0;
#X connect 29 0 30 0;
#X connect 30 0 40 0;
#X connect 31 0 32 0;
#X connect 32 0 33 0;
#X connect 34 0 36 0;
#X connect 35 0 32 1;
#X connect 36 0 35 0;
#X connect 37 0 38 0;
#X connect 39 0 34 0;
#X connect 40 0 31 0;
#X connect 40 1 41 0;
#X connect 41 0 39 0;
#X connect 42 0 41 1;
#X connect 43 0 37 0;
#X connect 44 0 43 0;
#X connect 44 0 29 0;
