#N canvas 510 92 1796 883 12;
#X declare -lib fd_lib;
#X obj 485 10 declare -lib fd_lib;
#X msg 14 73 \; pd dsp 1;
#X msg 12 25 \; pd dsp 0;
#X obj 352 159 tgl 20 0 empty empty empty 0 -10 0 12 #fcfcfc #000000 #000000 0 1;
#X msg 352 184 all \$1;
#X obj 274 361 output~;
#X floatatom 283 33 5 0 0 0 - - - 0;
#X obj 283 57 s speed;
#X floatatom 182 5 5 0 0 0 - - - 0;
#X obj 182 29 s base;
#X floatatom 198 72 5 0 0 0 - - - 0;
#X obj 198 96 s amplitude;
#X obj 235 368 env~;
#X floatatom 235 393 5 0 0 0 - - - 0;
#X obj 347 369 env~;
#X floatatom 347 394 5 0 0 0 - - - 0;
#X obj 257 312 vstplugin~ BinauralDecoder 4 2;
#X obj 275 181 r bees;
#N canvas 0 27 1920 998 room 0;
#X obj 158 339 iempluginOSC;
#X obj 55 138 list;
#X msg 61 116 X 25 \, Y 25 \, Z 10;
#X msg 49 159 /RoomEncoder/room\$1 \$2;
#X obj 107 32 bng 20 250 50 0 empty empty empty 0 -10 0 12 #fcfcfc #000000 #000000;
#X obj 452 139 hsl 170 20 0 127 0 0 empty empty empty -2 -10 0 12 #fcfcfc #000000 #000000 0 1;
#X obj 449 164 expr $f1/127*30-15;
#X obj 638 93 vsl 20 170 0 127 0 0 empty empty empty 0 -9 0 12 #fcfcfc #000000 #000000 0 1;
#X obj 638 271 expr $f1/127*30-15;
#X msg 449 189 X \$1;
#X msg 638 296 Y \$1;
#X floatatom 488 190 5 0 0 0 - - - 0;
#X floatatom 686 298 5 0 0 0 - - - 0;
#X obj 686 138 hsl 170 20 0 127 0 0 empty empty empty -2 -10 0 12 #fcfcfc #000000 #000000 0 1;
#X obj 683 163 expr $f1/127*20-10;
#X floatatom 733 188 5 0 0 0 - - - 0;
#X msg 683 188 Z \$1;
#X obj 169 415 s room;
#X text 140 32 room and default listener;
#X obj 105 6 loadbang;
#X msg 607 11 0 0 1.8;
#X obj 607 36 unpack f f f;
#X obj 449 115 expr ($f1/30)*127+63.5;
#X obj 640 65 expr ($f1/30)*127+63.5;
#X obj 682 109 expr ($f1/20)*127+63.5;
#X obj 684 337 list;
#X msg 684 362 /RoomEncoder/listener\$1 \$2;
#X connect 0 0 17 0;
#X connect 1 0 3 0;
#X connect 2 0 1 0;
#X connect 3 0 0 0;
#X connect 4 0 2 0;
#X connect 4 0 20 0;
#X connect 5 0 6 0;
#X connect 6 0 9 0;
#X connect 6 0 11 0;
#X connect 7 0 8 0;
#X connect 8 0 10 0;
#X connect 8 0 12 0;
#X connect 9 0 25 0;
#X connect 10 0 25 0;
#X connect 13 0 14 0;
#X connect 14 0 15 0;
#X connect 14 0 16 0;
#X connect 16 0 25 0;
#X connect 19 0 4 0;
#X connect 20 0 21 0;
#X connect 21 0 22 0;
#X connect 21 1 23 0;
#X connect 21 2 24 0;
#X connect 22 0 5 0;
#X connect 23 0 7 0;
#X connect 24 0 13 0;
#X connect 25 0 26 0;
#X connect 26 0 0 0;
#X restore 33 161 pd room;
#N canvas 157 75 1446 885 bees-motion 0;
#X obj 563 132 tgl 20 0 empty empty empty 0 -10 0 12 #fcfcfc #000000 #000000 0 1;
#X msg 563 157 all \$1;
#X msg 44 114 initx 0 \, inity 0 \, initz 0.1;
#X obj 44 139 list prepend all;
#X obj 44 164 list trim;
#X text 90 90 same initial state;
#X msg 308 105 all random;
#X msg 369 232 10;
#X obj 369 257 until;
#X obj 369 282 t f b;
#X obj 422 314 / 100;
#X obj 422 289 random 300;
#X obj 422 339 + 10;
#X obj 331 317 pack;
#X msg 331 342 \$1 inita \$2;
#X obj 331 367 s bees;
#X text 188 258 change attractor;
#X obj 121 321 hradio 20 1 0 2 empty empty empty 0 -10 0 12 #fcfcfc #000000 #000000 0;
#X msg 120 345 all type \$1;
#X obj 563 182 s bees;
#X obj 44 189 s bees;
#X obj 308 130 s bees;
#X text 305 75 different initial state;
#X text 551 104 start motion;
#X obj 121 370 s bees;
#X obj 425 211 loadbang;
#X connect 0 0 1 0;
#X connect 1 0 19 0;
#X connect 2 0 3 0;
#X connect 3 0 4 0;
#X connect 4 0 20 0;
#X connect 6 0 21 0;
#X connect 7 0 8 0;
#X connect 8 0 9 0;
#X connect 9 0 13 0;
#X connect 9 1 11 0;
#X connect 10 0 12 0;
#X connect 11 0 10 0;
#X connect 12 0 13 1;
#X connect 13 0 14 0;
#X connect 14 0 15 0;
#X connect 17 0 18 0;
#X connect 18 0 24 0;
#X connect 25 0 7 0;
#X restore 34 132 pd bees-motion;
#X floatatom 544 139 5 0 0 0 - - - 0;
#X obj 544 163 s speed-pitch-factor;
#X floatatom 554 200 5 0 0 0 - - - 0;
#X obj 554 224 s speed-pitch-q;
#X obj 174 181 r pv;
#X msg 186 133 \; pv all pd~ stop;
#X msg 364 54 \; bees all 1 \; base 180 \; speed 20 \; amplitude 100;
#X msg 41 301 \; pv all auto 20;
#X msg 31 201 \; pv all pd~ start -nogui -open ./pv~.pd;
#X obj 254 224 clone pvb~ 3;
#X obj 42 396 s pv;
#X msg 42 346 1 10 5;
#X msg 528 320 \; pv \$1 duration \$2 10 10;
#X msg 525 262 0 20000 \, 1 1000 \, 2 4000;
#X msg 42 371 0 auto \$1 \, 1 auto \$2 \, 2 aut o\$3;
#X msg 731 14 3;
#X obj 731 39 until;
#X obj 731 64 random 100;
#X obj 731 89 / 100;
#X obj 731 139 s pv;
#X msg 731 114 next loc-offset \$1;
#X msg 737 173 3;
#X obj 737 198 until;
#X obj 737 223 random 100;
#X obj 737 248 / 100;
#X obj 737 298 s pv;
#X msg 737 273 next loc-range \$1;
#X msg 700 311 3;
#X obj 700 336 until;
#X obj 700 414 s pv;
#X msg 701 389 next duration \$1 1000 10;
#X obj 700 361 random 20000;
#X floatatom 496 90 5 0 0 0 - - - 0;
#X obj 496 139 s pv;
#X msg 496 114 all location \$1;
#X msg 105 345 1 1 1;
#X floatatom 623 49 5 0 0 0 - - - 0;
#X obj 623 73 s lowcut;
#X msg 46 242 \; pv all read-sample ../mspstretch/sounds/voice.wav \, all loc-range 1 \, all loc-offset 0 \, all pd dsp 1;
#X msg 764 325 20;
#X msg 813 348 20000;
#X connect 3 0 4 0;
#X connect 4 0 29 2;
#X connect 6 0 7 0;
#X connect 8 0 9 0;
#X connect 10 0 11 0;
#X connect 12 0 13 0;
#X connect 14 0 15 0;
#X connect 16 0 12 0;
#X connect 16 0 5 0;
#X connect 16 1 14 0;
#X connect 16 1 5 1;
#X connect 17 0 29 1;
#X connect 20 0 21 0;
#X connect 22 0 23 0;
#X connect 24 0 29 0;
#X connect 29 0 16 0;
#X connect 29 1 16 1;
#X connect 29 2 16 2;
#X connect 29 3 16 3;
#X connect 31 0 34 0;
#X connect 33 0 32 0;
#X connect 34 0 30 0;
#X connect 35 0 36 0;
#X connect 36 0 37 0;
#X connect 37 0 38 0;
#X connect 38 0 40 0;
#X connect 40 0 39 0;
#X connect 41 0 42 0;
#X connect 42 0 43 0;
#X connect 43 0 44 0;
#X connect 44 0 46 0;
#X connect 46 0 45 0;
#X connect 47 0 48 0;
#X connect 48 0 51 0;
#X connect 50 0 49 0;
#X connect 51 0 50 0;
#X connect 52 0 54 0;
#X connect 54 0 53 0;
#X connect 55 0 34 0;
#X connect 56 0 57 0;
#X connect 59 0 51 1;
#X connect 60 0 51 1;
