#N canvas 15 27 1712 781 12;
#X obj 335 29 inlet;
#X obj 643 69 inlet;
#X obj 643 94 switch~;
#X obj 206 271 vstplugin~ RoomEncoder 1 4;
#X obj 222 349 outlet~;
#X obj 284 348 outlet~;
#X obj 345 347 outlet~;
#X obj 407 346 outlet~;
#X obj 105 210 r room;
#X obj 294 199 iempluginOSC;
#X msg 297 140 /RoomEncoder/sourceX \$1 \, /RoomEncoder/sourceY \$2 \, /RoomEncoder/sourceZ \$3, f 24;
#N canvas 0 27 1863 950 phase-vocoder-bee 1;
#X text 311 30 abeja;
#X obj 152 27 loadbang;
#X obj 152 52 f \$1;
#X obj 162 343 *~ 0.03;
#X obj 212 67 r base;
#X obj 212 92 t b f;
#X obj 152 77 * 1.1;
#X obj 230 261 r amplitude;
#X obj 227 318 dbtorms;
#X obj 227 343 clip 0 1;
#X obj 228 290 clip 0 100;
#X obj 468 79 tgl 20 0 empty empty empty 0 -10 0 12 #fcfcfc #000000 #000000 0 1;
#X obj 468 199 unpack f f f;
#X obj 468 172 lorenz;
#X obj 472 228 / 20;
#X obj 514 230 / 26;
#X obj 555 227 / 50;
#X msg 743 143 initx \$1;
#X msg 753 163 inity \$1;
#X msg 763 183 initz \$1;
#X obj 674 7 loadbang;
#X obj 468 8 inlet;
#X obj 468 104 metro 7;
#X obj 780 265 r speed;
#X obj 622 114 until;
#X obj 470 277 - 1;
#X obj 467 254 * 2;
#X obj 512 260 * 2;
#X obj 513 284 - 1;
#X obj 560 255 * 2;
#X obj 558 276 - 1;
#X obj 741 69 random 100;
#X obj 741 94 / 100;
#X obj 785 90 random 100;
#X obj 785 115 / 100;
#X obj 829 114 random 100;
#X obj 829 139 / 100;
#X obj 768 44 t b b b;
#X obj 681 33 t b b;
#X obj 556 338 pack f 7;
#X obj 491 335 pack f 7;
#X obj 639 334 pack f 7;
#X obj 556 363 line 0 3;
#X obj 491 360 line 0 3;
#X obj 639 359 line 0 3;
#X obj 468 44 route float random;
#X obj 469 302 * 13;
#X obj 511 308 * 13;
#X obj 558 304 * 8;
#X msg 622 89 1000;
#X obj 531 409 pack f f f;
#X obj 531 434 outlet;
#X obj 157 396 outlet~;
#X obj 275 233 siginfo;
#N canvas 0 22 450 300 time 0;
#X obj 119 115 timer;
#X obj 119 84 t b b b;
#X obj 119 56 inlet;
#X obj 119 191 outlet;
#X connect 0 0 3 0;
#X connect 1 0 0 0;
#X connect 1 1 0 1;
#X connect 2 0 1 0;
#X restore 348 190 pd time;
#N canvas 0 77 1311 927 cook 0;
#X obj 33 125 unpack f f f f f f f;
#X obj 245 168 t f f;
#X obj 282 207 /;
#X obj 461 371 siginfo;
#X obj 408 437 -;
#X obj 282 257 t f f;
#X obj 443 436 list split 1;
#X obj 33 16 inlet;
#X obj 354 150 inlet time;
#X text 108 14 Out comes a list of xup \, yup \, zup \, xdis \, ydis \, zdis \, dist;
#X text 106 101 'dist': is the distance of all xdis \, ydis and zdis together.;
#X text 110 59 'x|y|z dis': are the respective absolute value of the difference between x and x-1 \, y and y-1 \, z and z-1;
#X text 110 43 'x|y|z up': a 1 if value increases \, 0 if decreases.;
#X obj 456 341 list prepend 0;
#X obj 408 277 t f f;
#X obj 409 466 * 100;
#X text 390 405 t0;
#X text 485 407 returns t-1;
#X obj 282 232 fd_lib/fd_norm;
#X obj 245 331 fd_lib/fd_norm;
#X obj 245 367 outlet dist;
#X obj 282 287 outlet speed;
#X obj 410 496 outlet accel;
#X connect 0 6 1 0;
#X connect 1 0 19 0;
#X connect 1 1 2 0;
#X connect 2 0 18 0;
#X connect 3 2 6 0;
#X connect 4 0 15 0;
#X connect 5 0 21 0;
#X connect 5 1 14 0;
#X connect 6 0 4 1;
#X connect 7 0 0 0;
#X connect 8 0 2 1;
#X connect 13 0 3 0;
#X connect 14 0 4 0;
#X connect 14 1 13 0;
#X connect 15 0 22 0;
#X connect 18 0 5 0;
#X connect 19 0 20 0;
#X restore 301 280 pd cook;
#X obj 275 119 list prepend 3, f 9;
#X obj 460 132 t b b;
#X obj 151 155 * 1;
#X obj 192 178 t b f;
#X obj 346 150 t a a;
#X obj 239 19 r speed-pitch-factor;
#X obj 192 156 + 1;
#X obj 263 76 r speed-pitch-q;
#X obj 192 134 *;
#X obj 40 250 pd~ -ninsig 0 -noutsig 1;
#X obj 39 41 inlet;
#X msg 84 190 transpo \$1;
#X obj 159 111 +;
#X obj 61 281 print bee-\$1;
#X obj 159 306 hip~ 3000;
#X obj 142 220 r lowcut;
#X connect 1 0 2 0;
#X connect 2 0 6 0;
#X connect 3 0 52 0;
#X connect 4 0 5 0;
#X connect 5 0 2 0;
#X connect 5 1 68 1;
#X connect 6 0 68 0;
#X connect 7 0 10 0;
#X connect 8 0 9 0;
#X connect 9 0 3 1;
#X connect 10 0 8 0;
#X connect 11 0 22 0;
#X connect 12 0 14 0;
#X connect 12 1 15 0;
#X connect 12 2 16 0;
#X connect 13 0 60 0;
#X connect 14 0 26 0;
#X connect 15 0 27 0;
#X connect 16 0 29 0;
#X connect 17 0 13 0;
#X connect 18 0 13 0;
#X connect 19 0 13 0;
#X connect 20 0 38 0;
#X connect 21 0 45 0;
#X connect 22 0 57 0;
#X connect 23 0 22 1;
#X connect 23 0 40 1;
#X connect 23 0 39 1;
#X connect 23 0 41 1;
#X connect 24 0 13 0;
#X connect 25 0 46 0;
#X connect 26 0 25 0;
#X connect 27 0 28 0;
#X connect 28 0 47 0;
#X connect 29 0 30 0;
#X connect 30 0 48 0;
#X connect 31 0 32 0;
#X connect 32 0 17 0;
#X connect 33 0 34 0;
#X connect 34 0 18 0;
#X connect 35 0 36 0;
#X connect 36 0 19 0;
#X connect 37 0 31 0;
#X connect 37 1 33 0;
#X connect 37 2 35 0;
#X connect 38 0 49 0;
#X connect 38 1 37 0;
#X connect 39 0 42 0;
#X connect 40 0 43 0;
#X connect 41 0 44 0;
#X connect 42 0 50 1;
#X connect 43 0 50 0;
#X connect 44 0 50 2;
#X connect 45 0 11 0;
#X connect 45 1 37 0;
#X connect 45 2 13 0;
#X connect 46 0 40 0;
#X connect 47 0 39 0;
#X connect 48 0 41 0;
#X connect 49 0 24 0;
#X connect 50 0 51 0;
#X connect 53 1 55 0;
#X connect 54 0 55 1;
#X connect 55 1 64 0;
#X connect 56 0 53 0;
#X connect 57 0 13 0;
#X connect 57 1 54 0;
#X connect 58 0 67 0;
#X connect 59 0 58 0;
#X connect 59 1 58 1;
#X connect 60 0 56 0;
#X connect 60 1 12 0;
#X connect 61 0 64 1;
#X connect 62 0 59 0;
#X connect 63 0 62 1;
#X connect 64 0 62 0;
#X connect 65 0 69 0;
#X connect 65 1 70 0;
#X connect 66 0 65 0;
#X connect 67 0 65 0;
#X connect 68 0 58 0;
#X connect 70 0 3 0;
#X connect 71 0 70 1;
#X restore 185 104 pd phase-vocoder-bee;
#X obj 159 34 inlet;
#X connect 0 0 11 1;
#X connect 1 0 2 0;
#X connect 3 0 4 0;
#X connect 3 1 5 0;
#X connect 3 2 6 0;
#X connect 3 3 7 0;
#X connect 8 0 3 0;
#X connect 9 0 3 0;
#X connect 10 0 9 0;
#X connect 11 0 3 0;
#X connect 11 1 10 0;
#X connect 12 0 11 0;
