#N canvas 1062 538 450 300 12;
#X floatatom 476 124 5 0 0 0 - transpo-set - 0;
#X floatatom 182 161 5 0 0 0 - speed-set - 0;
#X floatatom 89 163 7 0 0 0 - location-set - 0;
#N canvas 471 37 754 709 fft-analysis 0;
#X obj 56 486 *~;
#X obj 23 486 *~;
#X obj 23 508 -~;
#X obj 172 484 *~;
#X obj 141 484 *~;
#X obj 141 506 +~;
#X obj 114 202 *~;
#X obj 83 202 *~;
#X obj 55 202 *~;
#X obj 24 202 *~;
#X obj 24 227 +~;
#X obj 128 394 *~;
#X obj 24 631 *~;
#X obj 239 439 rfft~;
#X obj 123 170 rfft~;
#X obj 23 573 rifft~;
#X obj 25 655 outlet~;
#X obj 98 394 *~;
#X obj 98 416 +~;
#X obj 129 227 -~;
#X obj 23 440 *~;
#X obj 56 441 *~;
#X obj 127 633 r window-size;
#X obj 370 603 r window-size;
#X obj 370 652 block~;
#X obj 24 358 +~ 1e-15;
#X obj 23 607 *~;
#X obj 56 607 tabreceive~ \$0-hann;
#X obj 127 655 expr 2/(3*$f1);
#X msg 370 627 set \$1 4;
#X obj 98 440 q8_rsqrt~;
#N canvas 210 23 1029 784 read-windows 0;
#X obj 146 667 *~;
#X obj 469 418 r window-size;
#X obj 276 282 f;
#X obj 200 51 r window-size;
#X obj 200 99 /;
#X obj 325 669 *~;
#X obj 276 231 bang~;
#X obj 146 531 line~;
#X obj 200 124 * 1000;
#X obj 398 196 r speed;
#X obj 294 256 r location;
#X obj 318 284 +;
#X obj 398 249 *;
#X obj 294 341 / 1000;
#X obj 276 368 *;
#X text 308 368 reading location (samples);
#X obj 165 574 / 4;
#X obj 398 219 * 0.01;
#X floatatom 469 475 7 0 0 0 - - - 0;
#X obj 469 451 *;
#X obj 589 324 r transpo;
#X obj 589 348 * 0.01;
#X obj 589 372 + 69;
#X obj 589 397 mtof;
#X obj 589 424 / 440;
#X obj 504 451 t b f;
#X obj 146 693 outlet~;
#X obj 325 694 outlet~;
#X obj 343 638 tabreceive~ \$0-hann;
#X obj 763 390 r location;
#X msg 763 413 0;
#X obj 763 436 s speed;
#X obj 778 530 r speed;
#X msg 778 554 set \$1;
#X obj 778 579 s speed-set;
#X text 527 473 stretched window size (samples), f 16;
#X obj 887 529 r transpo;
#X msg 887 555 set \$1;
#X obj 887 580 s transpo-set;
#X obj 821 123 r location;
#X msg 835 309 set \$1;
#X obj 821 169 t b f;
#X obj 835 286 f;
#X obj 763 200 int;
#X obj 763 232 sel 0;
#X msg 822 203 1;
#X msg 822 226 0;
#X obj 763 257 del 300;
#X obj 835 335 s location-set;
#X obj 146 631 tabread4~ \$0-sample;
#X obj 324 611 tabread4~ \$0-sample;
#X obj 294 317 r \$0-insamprate;
#X obj 521 522 r rewind;
#X msg 521 700 \; location \$1;
#X floatatom 199 146 5 0 0 0 - - - 0;
#X obj 200 75 t f b;
#X obj 232 99 samplerate~;
#X obj 199 171 / 4;
#X obj 353 288 s see-loc;
#X obj 830 145 r see-loc;
#X obj 313 394 / 2;
#X obj 276 394 -;
#X text 349 391 back up 1/2 window;
#X obj 146 597 -~;
#X text 337 52 Read two windows out of the recorded sample \, one 1/4 ahead of the other. The mid point of the front window is specified by "location". If "speed" is nonzero \, "location" automatically precesses., f 45;
#X obj 521 676 * -0.5;
#X text 24 582 "back" window 1/4 cycle behind "front" one, f 16;
#X text 230 171 computation period (msec) for overlap of 4;
#X text 252 145 msec in a window;
#X obj 521 622 /;
#X obj 521 650 * 1000;
#X obj 521 598 t f b;
#X obj 553 622 samplerate~;
#X obj 521 575 f;
#X msg 890 680 \; rewind bang \; speed \$1;
#X obj 890 653 r auto;
#X obj 775 654 r no-detune;
#X text 766 484 reflect control changes;
#X text 766 501 in main window.;
#X text 805 622 misc controls;
#X obj 146 449 f;
#X obj 146 420 b;
#X msg 146 503 0 \, \$1 \$2;
#X msg 775 676 \; transpo 0;
#X text 717 63 if location changes \, update number box in main window via "location-set" \, but taking care to limit frequency of updates., f 38;
#X text 841 402 setting location by hand sets speed to zero., f 19;
#X text 550 547 "rewind" control takes us to a location depending on stretched window size., f 25;
#X text 434 242 loop to precess the location according to the "speed" parameter., f 22;
#X obj 146 476 pack f f;
#X connect 0 0 26 0;
#X connect 1 0 19 0;
#X connect 2 0 11 0;
#X connect 2 0 14 0;
#X connect 3 0 55 0;
#X connect 4 0 8 0;
#X connect 5 0 27 0;
#X connect 6 0 2 0;
#X connect 7 0 63 0;
#X connect 7 0 50 0;
#X connect 8 0 54 0;
#X connect 9 0 17 0;
#X connect 10 0 2 1;
#X connect 11 0 2 1;
#X connect 11 0 58 0;
#X connect 12 0 11 1;
#X connect 13 0 14 1;
#X connect 14 0 61 0;
#X connect 16 0 63 1;
#X connect 17 0 12 0;
#X connect 18 0 16 0;
#X connect 18 0 60 0;
#X connect 18 0 73 1;
#X connect 18 0 80 1;
#X connect 19 0 18 0;
#X connect 20 0 21 0;
#X connect 21 0 22 0;
#X connect 22 0 23 0;
#X connect 23 0 24 0;
#X connect 24 0 25 0;
#X connect 25 0 19 0;
#X connect 25 1 19 1;
#X connect 28 0 5 1;
#X connect 28 0 0 1;
#X connect 29 0 30 0;
#X connect 30 0 31 0;
#X connect 32 0 33 0;
#X connect 33 0 34 0;
#X connect 36 0 37 0;
#X connect 37 0 38 0;
#X connect 39 0 41 0;
#X connect 40 0 48 0;
#X connect 41 0 43 0;
#X connect 41 1 42 1;
#X connect 42 0 40 0;
#X connect 43 0 44 0;
#X connect 44 0 45 0;
#X connect 44 0 47 0;
#X connect 45 0 43 1;
#X connect 46 0 43 1;
#X connect 47 0 46 0;
#X connect 47 0 42 0;
#X connect 49 0 0 0;
#X connect 50 0 5 0;
#X connect 51 0 13 0;
#X connect 52 0 73 0;
#X connect 54 0 57 0;
#X connect 55 0 4 0;
#X connect 55 1 56 0;
#X connect 56 0 4 1;
#X connect 57 0 12 1;
#X connect 57 0 88 1;
#X connect 59 0 41 0;
#X connect 60 0 61 1;
#X connect 61 0 81 0;
#X connect 61 0 49 1;
#X connect 61 0 50 1;
#X connect 63 0 49 0;
#X connect 65 0 53 0;
#X connect 69 0 70 0;
#X connect 70 0 65 0;
#X connect 71 0 69 0;
#X connect 71 1 72 0;
#X connect 72 0 69 1;
#X connect 73 0 71 0;
#X connect 75 0 74 0;
#X connect 76 0 83 0;
#X connect 80 0 88 0;
#X connect 81 0 80 0;
#X connect 82 0 7 0;
#X connect 88 0 82 0;
#X restore 123 142 pd read-windows;
#X obj 141 541 tabsend~ prev-imag;
#X obj 140 574 tabsend~ prev-real;
#X obj 25 14 tabreceive~ prev-real;
#X obj 83 38 tabreceive~ prev-imag;
#X text 277 14 recall previous output amplitude. Its phase will be added to the phase difference we measure from two windows in the the recorded sound.;
#X obj 126 78 *~;
#X obj 99 78 *~;
#X obj 99 100 +~;
#X obj 164 103 q8_rsqrt~;
#X obj 164 80 +~ 1e-20;
#X obj 83 128 *~;
#X obj 24 127 *~;
#X obj 182 299 r lock;
#X obj 34 254 lrshift~ 1;
#X obj 29 278 lrshift~ -1;
#X obj 146 254 lrshift~ 1;
#X obj 138 278 lrshift~ -1;
#X obj 42 309 *~;
#X obj 164 321 *~;
#X obj 24 334 +~;
#X obj 130 321 +~;
#X text 252 75 divide by the magnitude to make a unit-magnitude complex amplitude (phase only). The 1e-20 is to prevent overflows. q8_rsqrt~ is reciprocal square root.;
#X text 252 174 Take FT of the window in back. Multiply its conjugate by the normalized previous output. The result has the magnitude of the input sound and phase (previous output phase) minus (back window phase).;
#X text 254 379 Normalize again \, this time taking care to salt each channel with 1e-15 so that we get a unit complex number even if everything was zero heretofore.;
#X text 287 435 Now take the FT of the forward window and multiply it by the unit complex number from above. The magnitude will be that of the forward window and the phase will be the previous output phase plus the phase difference between the two analysis windows -- except that if "lock" is on \, they will be modified to agree progressively better with the inter-channel phase relationships of the input.;
#X text 254 251 If "lock" is on \, encourage neighboring channels to stay in phase by adding the two neighboring complex amplitudes. The result will tend toward the channel with the strongest amplitude. If the phase relationships between channels in the output and those in the input are in parallel \, then neighboring channels of the quotient will all have the same phase and this will not change any phases. (lrshift shifts the signal to the left or right depending on its argument.);
#X text 264 135 Read two windows \, one 1/4 length behind the other \, of the input sound \, with Hann window function (see inside).;
#X text 341 566 'set' message to block allows variable size, f 22;
#X connect 0 0 2 1;
#X connect 1 0 2 0;
#X connect 2 0 33 0;
#X connect 2 0 15 0;
#X connect 3 0 5 1;
#X connect 4 0 5 0;
#X connect 5 0 32 0;
#X connect 5 0 15 1;
#X connect 6 0 19 1;
#X connect 7 0 19 0;
#X connect 8 0 10 1;
#X connect 9 0 10 0;
#X connect 10 0 46 0;
#X connect 10 0 45 0;
#X connect 10 0 51 0;
#X connect 11 0 18 1;
#X connect 12 0 16 0;
#X connect 13 0 1 1;
#X connect 13 0 3 1;
#X connect 13 1 0 1;
#X connect 13 1 4 1;
#X connect 14 0 9 1;
#X connect 14 0 7 1;
#X connect 14 1 6 1;
#X connect 14 1 8 1;
#X connect 15 0 26 0;
#X connect 17 0 18 0;
#X connect 18 0 30 0;
#X connect 19 0 47 0;
#X connect 19 0 48 0;
#X connect 19 0 52 0;
#X connect 20 0 1 0;
#X connect 20 0 4 0;
#X connect 21 0 0 0;
#X connect 21 0 3 0;
#X connect 22 0 28 0;
#X connect 23 0 29 0;
#X connect 25 0 17 1;
#X connect 25 0 17 0;
#X connect 25 0 20 0;
#X connect 26 0 12 0;
#X connect 27 0 26 1;
#X connect 28 0 12 1;
#X connect 29 0 24 0;
#X connect 30 0 20 1;
#X connect 30 0 21 1;
#X connect 31 0 14 0;
#X connect 31 1 13 0;
#X connect 34 0 38 1;
#X connect 34 0 38 0;
#X connect 34 0 43 0;
#X connect 35 0 37 1;
#X connect 35 0 37 0;
#X connect 35 0 42 0;
#X connect 37 0 39 1;
#X connect 38 0 39 0;
#X connect 39 0 41 0;
#X connect 40 0 42 1;
#X connect 40 0 43 1;
#X connect 41 0 40 0;
#X connect 42 0 8 0;
#X connect 42 0 7 0;
#X connect 43 0 9 0;
#X connect 43 0 6 0;
#X connect 44 0 49 1;
#X connect 44 0 50 1;
#X connect 45 0 49 0;
#X connect 46 0 49 0;
#X connect 47 0 50 0;
#X connect 48 0 50 0;
#X connect 49 0 51 1;
#X connect 50 0 52 1;
#X connect 51 0 25 0;
#X connect 52 0 11 0;
#X connect 52 0 11 1;
#X connect 52 0 21 0;
#X restore 95 233 pd fft-analysis;
#N canvas 260 23 531 738 phase-tables 0;
#N canvas 0 0 450 300 (subpatch) 0;
#X array prev-imag 4096 float 0;
#X coords 0 1000 4096 -1000 400 300 1;
#X restore 67 395 graph;
#N canvas 0 0 450 300 (subpatch) 0;
#X array prev-real 4096 float 0;
#X coords 0 500 4096 -500 400 300 1;
#X restore 67 40 graph;
#X restore 433 311 pd phase-tables;
#X obj 476 147 s transpo;
#X text 179 142 hundredths;
#X text 475 103 in cents;
#X text 382 136 normal;
#N canvas 385 188 595 536 hann-window 0;
#N canvas 0 0 450 300 (subpatch) 0;
#X array \$0-hann 2048 float 0;
#X coords 0 1 2047 0 300 100 1;
#X restore 148 395 graph;
#X obj 365 185 osc~;
#X obj 365 210 *~ -0.5;
#X obj 365 234 +~ 0.5;
#X obj 348 277 tabwrite~ \$0-hann;
#X obj 124 114 r window-size;
#X obj 195 238 /;
#X obj 213 206 samplerate~;
#X obj 195 316 s window-sec;
#X obj 105 252 swap;
#X obj 105 276 /;
#X obj 105 300 s window-hz;
#X obj 206 266 * 1000;
#X obj 206 293 s window-msec;
#X obj 124 149 t f b f;
#X msg 213 156 resize \$1;
#X obj 213 180 s \$0-hann;
#X obj 317 123 r window-hz;
#X msg 390 155 0;
#X obj 317 151 t f b;
#X text 94 21 calculate Hann window table (variable window size) and constants window-hz (fundamental frequency of analysis) \, window-sec and window-msec (analysis window size in seconds and msec)., f 56;
#X connect 1 0 2 0;
#X connect 2 0 3 0;
#X connect 3 0 4 0;
#X connect 5 0 14 0;
#X connect 6 0 8 0;
#X connect 6 0 12 0;
#X connect 7 0 6 1;
#X connect 7 0 9 1;
#X connect 9 0 10 0;
#X connect 9 1 10 1;
#X connect 10 0 11 0;
#X connect 12 0 13 0;
#X connect 14 0 6 0;
#X connect 14 0 9 0;
#X connect 14 1 7 0;
#X connect 14 2 15 0;
#X connect 15 0 16 0;
#X connect 17 0 19 0;
#X connect 18 0 1 1;
#X connect 19 0 1 0;
#X connect 19 1 4 0;
#X connect 19 1 18 0;
#X restore 433 335 pd hann-window;
#N canvas 410 109 1342 856 insample 0;
#N canvas 0 0 450 300 (subpatch) 0;
#X array \$0-sample 62079 float 0;
#X coords 0 1 62078 -1 400 150 1;
#X restore 302 143 graph;
#X obj 59 141 r read-sample;
#X obj 59 192 unpack s f;
#X obj 59 302 soundfiler;
#X obj 59 218 t s b;
#X obj 112 221 symbol \$0-sample;
#X obj 59 253 pack s s;
#X msg 59 278 read -resize \$1 \$2;
#X obj 59 165 t a b;
#X obj 69 331 s \$0-samplength;
#X obj 156 192 s \$0-insamprate;
#X obj 59 365 /;
#X obj 59 389 * 1000;
#X obj 59 412 s \$0-samp-msec;
#X obj 97 365 r \$0-insamprate;
#X obj 70 78 hip~ 5;
#X obj 70 54 adc~ 1;
#X obj 60 17 inlet;
#X obj 132 54 samplerate~;
#X obj 60 106 tabwrite~ \$0-sample;
#X obj 132 78 s \$0-insamprate;
#X msg 338 366 \; read-sample ../sound/voice.wav;
#X obj 306 28 inlet;
#X obj 306 50 openpanel;
#X obj 306 75 s read-sample;
#X obj 156 166 f 44100;
#X obj 221 326 list split 1;
#X obj 221 351 s \$0-file-samplerate;
#X connect 1 0 8 0;
#X connect 2 0 4 0;
#X connect 2 1 10 0;
#X connect 3 0 9 0;
#X connect 3 0 11 0;
#X connect 3 1 26 0;
#X connect 4 0 6 0;
#X connect 4 1 5 0;
#X connect 5 0 6 1;
#X connect 6 0 7 0;
#X connect 7 0 3 0;
#X connect 8 0 2 0;
#X connect 8 1 25 0;
#X connect 11 0 12 0;
#X connect 12 0 13 0;
#X connect 14 0 11 1;
#X connect 15 0 19 0;
#X connect 16 0 15 0;
#X connect 17 0 18 0;
#X connect 17 0 19 0;
#X connect 18 0 20 0;
#X connect 22 0 23 0;
#X connect 23 0 24 0;
#X connect 25 0 10 0;
#X connect 26 0 27 0;
#X restore 434 287 pd insample;
#X floatatom 579 285 7 0 0 0 - \$0-samp-msec - 0;
#X obj 243 329 s read-sample;
#X obj 476 182 tgl 15 0 empty empty empty 0 -6 0 8 #fcfcfc #000000 #000000 0 1;
#X obj 89 185 s location;
#X obj 182 185 s speed;
#X obj 267 188 s rewind;
#X msg 345 111 200;
#X msg 353 136 100;
#X text 374 111 contract;
#X text 390 160 expand;
#X obj 476 202 s lock;
#X text 476 86 detune;
#X text 89 108 location;
#X text 86 124 (stops;
#X text 91 139 motion);
#X text 180 126 motion in;
#X text 234 259 read input sound;
#X text 631 284 length \, msec;
#X floatatom 578 258 7 0 0 0 - window-size - 0;
#X msg 578 123 512;
#X msg 584 146 1024;
#X msg 589 169 2048;
#X msg 594 192 4096;
#X obj 578 218 s window-size;
#X text 575 81 window size \,;
#X text 575 96 samples;
#X text 144 93 ------- location controls -------;
#X text 630 257 (check);
#X obj 345 188 s auto;
#X obj 533 125 bng 19 250 50 0 no-detune empty empty 0 -6 0 8 #dfdfdf #000000 #000000;
#X text 207 38 PHASE VOCODER FOR TIME STRETCHING AND CONTRACTION;
#X text 453 260 file =>;
#X text 455 235 <= record;
#X text 613 122 <= set;
#X obj 434 237 bng 19 250 50 0 empty empty empty 0 -6 0 8 #dfdfdf #000000 #000000;
#X obj 508 260 bng 19 250 50 0 empty empty empty 0 -6 0 8 #dfdfdf #000000 #000000;
#X msg 360 160 2;
#X obj 686 85 loadbang;
#X msg 240 304 ./sounds/voice.wav;
#N canvas 429 101 943 598 locations 1;
#X msg 32 63 100;
#X obj 41 115 until;
#X msg 36 192 append \$1;
#X obj 36 217 list store;
#X obj 32 89 t b f b;
#X obj 36 242 s locations;
#X obj 38 166 / 100;
#X obj 104 20 r locations;
#X obj 104 45 array set \$0-locations;
#X obj 181 104 array define \$0-locations;
#X obj 41 140 random 80;
#X obj 7 12 loadbang;
#X connect 0 0 4 0;
#X connect 1 0 10 0;
#X connect 2 0 3 0;
#X connect 3 0 5 0;
#X connect 4 0 3 0;
#X connect 4 1 1 0;
#X connect 4 2 3 1;
#X connect 6 0 2 0;
#X connect 7 0 8 0;
#X connect 10 0 6 0;
#X connect 11 0 0 0;
#X restore 101 68 pd locations;
#N canvas 0 27 1920 998 duration 0;
#X obj 111 45 r \$0-samplength;
#X floatatom 133 100 5 0 0 0 - - - 0;
#X floatatom 155 156 17 0 0 0 - - - 0;
#X obj 155 180 * 1000;
#X floatatom 155 205 5 0 0 0 - - - 0;
#X msg 446 223 0 \, 1 \$1;
#X obj 155 229 s location-range;
#X obj 155 131 / 44100;
#X obj 176 70 r \$0-file-samplerate;
#X floatatom 217 96 5 0 0 0 - - - 0;
#X obj 408 429 s location;
#X obj 470 348 r location-range;
#X obj 150 12 bng 20 250 50 0 empty empty empty 0 -10 0 12 #fcfcfc #000000 #000000;
#X obj 443 249 line;
#X obj 442 273 * 97;
#X obj 428 298 + 1;
#X obj 415 349 *;
#X obj 518 385 r loc-range;
#X obj 507 410 r loc-offset;
#X obj 409 394 +;
#X obj 411 372 * 1;
#X obj 507 435 *;
#X obj 547 439 r location-range;
#X obj 623 275 send~ pad;
#X obj 475 24 r duration;
#X obj 382 135 del;
#X obj 382 110 - 50;
#X obj 606 196 line~;
#X obj 454 159 del 10;
#X obj 457 194 f;
#X obj 426 83 t f b f b;
#X obj 606 221 *~;
#X obj 606 246 *~;
#X obj 475 52 unpack f f f;
#X obj 516 80 t f f;
#X obj 564 79 t f f;
#X obj 382 160 pack 0 50;
#X obj 510 119 pack 1 10;
#X msg 535 155 0 \, \$1 \$2;
#X msg 86 321 \; duration 20000 10 10 \; loc-range 0.1 \; loc-offset 0.2;
#X obj 332 17 del;
#X obj 332 42 s done-duration;
#X obj 415 324 tabread4 \$0-locations;
#X connect 0 0 1 0;
#X connect 1 0 7 0;
#X connect 2 0 3 0;
#X connect 3 0 4 0;
#X connect 4 0 6 0;
#X connect 5 0 13 0;
#X connect 7 0 2 0;
#X connect 8 0 7 1;
#X connect 8 0 9 0;
#X connect 11 0 16 1;
#X connect 12 0 1 0;
#X connect 13 0 14 0;
#X connect 14 0 15 0;
#X connect 15 0 42 0;
#X connect 16 0 20 0;
#X connect 17 0 20 1;
#X connect 18 0 21 0;
#X connect 19 0 10 0;
#X connect 20 0 19 0;
#X connect 21 0 19 1;
#X connect 22 0 21 1;
#X connect 24 0 33 0;
#X connect 25 0 36 0;
#X connect 26 0 25 0;
#X connect 27 0 31 0;
#X connect 27 0 31 1;
#X connect 28 0 29 0;
#X connect 29 0 5 0;
#X connect 30 0 26 0;
#X connect 30 0 40 0;
#X connect 30 1 28 0;
#X connect 30 2 29 1;
#X connect 30 3 37 0;
#X connect 31 0 32 0;
#X connect 31 0 32 1;
#X connect 32 0 23 0;
#X connect 33 0 30 0;
#X connect 33 1 34 0;
#X connect 33 2 35 0;
#X connect 34 0 28 1;
#X connect 34 1 37 1;
#X connect 35 0 36 1;
#X connect 35 1 26 1;
#X connect 36 0 27 0;
#X connect 37 0 38 0;
#X connect 38 0 27 0;
#X connect 40 0 41 0;
#X connect 42 0 16 0;
#X restore 100 39 pd duration;
#X msg 739 343 \; duration 39 1 1;
#X msg 739 248 \; duration 20000 10 10 \; loc-range 0.03 \; loc-offset 0.8 \; transpo 0;
#X msg 685 103 \; window-size 2048 \; transpo 0 \; rewind bang \; lock 1 \;;
#X obj 95 258 dac~ 1;
#X connect 0 0 5 0;
#X connect 1 0 15 0;
#X connect 2 0 14 0;
#X connect 3 0 55 0;
#X connect 13 0 21 0;
#X connect 17 0 39 0;
#X connect 18 0 39 0;
#X connect 30 0 34 0;
#X connect 31 0 34 0;
#X connect 32 0 34 0;
#X connect 33 0 34 0;
#X connect 45 0 10 0;
#X connect 46 0 10 1;
#X connect 47 0 39 0;
#X connect 48 0 54 0;
#X connect 49 0 12 0;
