#N canvas 684 208 1712 781 12;
#X declare -lib fd_lib;
#X obj 545 56 tgl 20 0 empty empty empty 0 -10 0 12 #fcfcfc #000000 #000000 0 1;
#X obj 485 10 declare -lib fd_lib;
#X obj 545 81 metro 1;
#X obj 545 136 unpack f f f;
#X obj 545 109 lorenz;
#X floatatom 607 75 5 0 0 0 - - - 0;
#X floatatom 249 35 5 0 0 0 - - - 0;
#X obj 214 62 phasor~ 300;
#X obj 217 104 hip~ 2500;
#X text 356 16 abeja;
#X floatatom 773 210 5 0 0 0 - - - 0;
#X obj 215 131 *~ 0.05;
#X msg 14 73 \; pd dsp 1;
#X msg 12 25 \; pd dsp 0;
#X obj 383 207 env~;
#X floatatom 383 232 5 0 0 0 - - - 0;
#X obj 441 206 env~;
#X floatatom 441 231 5 0 0 0 - - - 0;
#X obj 164 126 env~;
#X floatatom 164 151 5 0 0 0 - - - 0;
#X obj 528 170 / 20;
#X obj 570 166 / 26;
#X obj 617 178 / 50;
#X msg 673 308 param_list;
#X obj 28 238 env~;
#X floatatom 28 263 5 0 0 0 - - - 0;
#X obj 117 242 env~;
#X floatatom 117 267 5 0 0 0 - - - 0;
#X obj 509 336 s \$0-RoomEncoder;
#X obj 513 312 iempluginOSC;
#X msg 497 206 /RoomEncoder/sourceX \$1;
#X msg 553 235 /RoomEncoder/sourceY \$1;
#X msg 572 269 /RoomEncoder/sourceZ \$1;
#X obj 29 215 vstplugin~ BinauralDecoder 4 2;
#X obj 218 162 vstplugin~ StereoEncoder 1 4;
#X obj 297 209 env~;
#X floatatom 297 234 5 0 0 0 - - - 0;
#X obj 341 208 env~;
#X floatatom 341 233 5 0 0 0 - - - 0;
#X obj 335 69 hsl 170 20 -180 180 0 0 empty empty empty -2 -10 0 12 #fcfcfc #000000 #000000 0 1;
#X msg 332 94 /StereoEncoder/azimuth \$1;
#X obj 332 119 iempluginOSC;
#X connect 0 0 2 0;
#X connect 2 0 4 0;
#X connect 3 0 20 0;
#X connect 3 1 21 0;
#X connect 3 2 22 0;
#X connect 4 0 3 0;
#X connect 5 0 2 1;
#X connect 6 0 7 0;
#X connect 7 0 8 0;
#X connect 8 0 11 0;
#X connect 11 0 18 0;
#X connect 11 0 34 0;
#X connect 14 0 15 0;
#X connect 16 0 17 0;
#X connect 18 0 19 0;
#X connect 20 0 30 0;
#X connect 21 0 31 0;
#X connect 22 0 32 0;
#X connect 23 0 29 0;
#X connect 24 0 25 0;
#X connect 26 0 27 0;
#X connect 29 0 28 0;
#X connect 30 0 29 0;
#X connect 31 0 29 0;
#X connect 32 0 29 0;
#X connect 33 0 24 0;
#X connect 33 1 26 0;
#X connect 34 0 33 0;
#X connect 34 0 35 0;
#X connect 34 1 33 1;
#X connect 34 1 37 0;
#X connect 34 2 33 2;
#X connect 34 2 14 0;
#X connect 34 3 33 3;
#X connect 34 3 16 0;
#X connect 35 0 36 0;
#X connect 37 0 38 0;
#X connect 39 0 40 0;
#X connect 40 0 41 0;
#X connect 41 0 34 0;
